<svg width="152" height="201" viewBox="0 0 152 201" fill="none" xmlns="http://www.w3.org/2000/svg">
<g clip-path="url(#clip0_1_5)">
<rect width="152" height="201" fill="white"/>
<path d="M25.5129 158.5H118.487C118.227 163.514 114.079 167.5 109 167.5H35C29.921 167.5 25.7729 163.514 25.5129 158.5Z" stroke="#372BC4"/>
<path d="M42 114.5H103C105.485 114.5 107.5 116.515 107.5 119V158.5H37.5V119C37.5 116.515 39.5147 114.5 42 114.5Z" stroke="#392DC4"/>
<rect x="42.5" y="119.5" width="59" height="34" stroke="#372BC4"/>
<g clip-path="url(#clip1_1_5)">
<path d="M108.608 101.752C108.148 101.512 107.652 101.355 107.14 101.284L88.1887 98.7592C87.5447 98.6776 86.9186 99.0052 86.6174 99.5823C86.3162 100.159 86.4057 100.86 86.8409 101.342L89.5061 104.252C87.8053 105.24 86.3677 106.708 85.4105 108.542L84.5726 110.147C83.7258 111.77 82.2387 113.124 80.8968 114.104C80.14 114.654 79.338 115.166 78.4978 115.585C78.1878 115.736 77.9697 116.029 77.9199 116.374C77.87 116.719 77.9952 117.06 78.2518 117.289L81.4096 120.1C81.6153 120.287 81.8947 120.375 82.1735 120.353C82.4522 120.331 82.7132 120.191 82.8868 119.969C84.6515 117.779 85.5523 115.457 86.0088 113.696C86.2505 112.79 86.4386 111.834 86.4944 110.896L87.228 109.49C88.1285 107.765 89.5576 106.438 91.2427 105.66C92.4375 105.157 93.7587 104.937 95.1015 105.078L105.858 106.206C106.419 106.266 106.828 106.77 106.765 107.334C106.703 107.897 106.198 108.31 105.637 108.25L94.8804 107.122C94.03 107.035 93.1873 107.14 92.4075 107.402L99.7544 115.424C100.106 115.803 100.518 116.12 100.978 116.36C101.438 116.6 101.934 116.757 102.446 116.828L121.395 119.373C122.036 119.461 122.665 119.127 122.966 118.55C123.267 117.973 123.178 117.272 122.742 116.791L109.832 102.689C109.481 102.309 109.068 101.992 108.608 101.752ZM86.4922 117.547C85.4396 119.564 89.2296 124.21 95.2498 127.351C101.27 130.493 107.249 130.945 108.301 128.928L111.768 120.166L102.159 118.889C101.409 118.788 100.685 118.556 100.021 118.209C99.3563 117.862 98.7457 117.398 98.2402 116.844L91.6967 109.692L86.4922 117.547Z" fill="#372BC3"/>
</g>
<rect x="45" y="144" width="16" height="2" rx="1" fill="#372BC4"/>
<rect x="45" y="149" width="28" height="2" rx="1" fill="#372BC4"/>
<path d="M57.8295 129.455C57.7784 129.023 57.571 128.688 57.2074 128.449C56.8438 128.21 56.3977 128.091 55.8693 128.091C55.483 128.091 55.1449 128.153 54.8551 128.278C54.5682 128.403 54.3438 128.575 54.1818 128.794C54.0227 129.013 53.9432 129.261 53.9432 129.54C53.9432 129.773 53.9986 129.973 54.1094 130.141C54.223 130.305 54.3679 130.443 54.544 130.554C54.7202 130.662 54.9048 130.751 55.098 130.822C55.2912 130.891 55.4688 130.946 55.6307 130.989L56.517 131.227C56.7443 131.287 56.9972 131.369 57.2756 131.474C57.5568 131.58 57.8253 131.723 58.081 131.905C58.3395 132.084 58.5526 132.314 58.7202 132.595C58.8878 132.876 58.9716 133.222 58.9716 133.631C58.9716 134.102 58.848 134.528 58.6009 134.909C58.3565 135.29 57.9986 135.592 57.527 135.817C57.0582 136.041 56.4886 136.153 55.8182 136.153C55.1932 136.153 54.652 136.053 54.1946 135.851C53.7401 135.649 53.3821 135.368 53.1207 135.007C52.8622 134.646 52.7159 134.227 52.6818 133.75H53.7727C53.8011 134.08 53.9119 134.352 54.1051 134.568C54.3011 134.781 54.5483 134.94 54.8466 135.045C55.1477 135.148 55.4716 135.199 55.8182 135.199C56.2216 135.199 56.5838 135.134 56.9048 135.003C57.2259 134.869 57.4801 134.685 57.6676 134.449C57.8551 134.21 57.9489 133.932 57.9489 133.614C57.9489 133.324 57.8679 133.088 57.706 132.906C57.544 132.724 57.331 132.577 57.0668 132.463C56.8026 132.349 56.517 132.25 56.2102 132.165L55.1364 131.858C54.4545 131.662 53.9148 131.382 53.517 131.018C53.1193 130.655 52.9205 130.179 52.9205 129.591C52.9205 129.102 53.0526 128.676 53.3168 128.312C53.5838 127.946 53.9418 127.662 54.3906 127.46C54.8423 127.256 55.3466 127.153 55.9034 127.153C56.4659 127.153 56.9659 127.254 57.4034 127.456C57.8409 127.655 58.1875 127.928 58.4432 128.274C58.7017 128.621 58.8381 129.014 58.8523 129.455H57.8295ZM60.5728 136V129.455H61.5444V130.477H61.6296C61.766 130.128 61.9862 129.857 62.2901 129.663C62.5941 129.467 62.9592 129.369 63.3853 129.369C63.8171 129.369 64.1765 129.467 64.4634 129.663C64.7532 129.857 64.979 130.128 65.141 130.477H65.2092C65.3768 130.139 65.6282 129.871 65.9634 129.672C66.2987 129.47 66.7006 129.369 67.1694 129.369C67.7546 129.369 68.2333 129.553 68.6055 129.919C68.9776 130.283 69.1637 130.849 69.1637 131.619V136H68.158V131.619C68.158 131.136 68.0259 130.791 67.7617 130.584C67.4975 130.376 67.1864 130.273 66.8285 130.273C66.3683 130.273 66.0117 130.412 65.7589 130.69C65.506 130.966 65.3796 131.315 65.3796 131.739V136H64.3569V131.517C64.3569 131.145 64.2362 130.845 63.9947 130.618C63.7532 130.388 63.4421 130.273 63.0614 130.273C62.8001 130.273 62.5558 130.342 62.3285 130.482C62.104 130.621 61.9222 130.814 61.783 131.061C61.6467 131.305 61.5785 131.588 61.5785 131.909V136H60.5728ZM72.9286 136.153C72.5138 136.153 72.1374 136.075 71.7994 135.919C71.4613 135.76 71.1928 135.531 70.994 135.233C70.7951 134.932 70.6957 134.568 70.6957 134.142C70.6957 133.767 70.7695 133.463 70.9173 133.23C71.065 132.994 71.2624 132.81 71.5096 132.676C71.7567 132.543 72.0295 132.443 72.3278 132.378C72.6289 132.31 72.9315 132.256 73.2354 132.216C73.6332 132.165 73.9556 132.126 74.2028 132.101C74.4528 132.072 74.6346 132.026 74.7482 131.96C74.8647 131.895 74.9229 131.781 74.9229 131.619V131.585C74.9229 131.165 74.8079 130.838 74.5778 130.605C74.3505 130.372 74.0053 130.256 73.5423 130.256C73.0621 130.256 72.6857 130.361 72.413 130.571C72.1403 130.781 71.9485 131.006 71.8377 131.244L70.8832 130.903C71.0536 130.506 71.2809 130.196 71.565 129.974C71.8519 129.75 72.1644 129.594 72.5025 129.506C72.8434 129.415 73.1786 129.369 73.5082 129.369C73.7184 129.369 73.9599 129.395 74.2326 129.446C74.5082 129.494 74.7738 129.595 75.0295 129.749C75.288 129.902 75.5025 130.134 75.6729 130.443C75.8434 130.753 75.9286 131.168 75.9286 131.688V136H74.9229V135.114H74.8718C74.8036 135.256 74.69 135.408 74.5309 135.57C74.3718 135.732 74.1602 135.869 73.896 135.983C73.6317 136.097 73.3093 136.153 72.9286 136.153ZM73.082 135.25C73.4798 135.25 73.815 135.172 74.0877 135.016C74.3633 134.859 74.5707 134.658 74.7099 134.411C74.8519 134.163 74.9229 133.903 74.9229 133.631V132.71C74.8803 132.761 74.7866 132.808 74.6417 132.851C74.4996 132.891 74.3349 132.926 74.1474 132.957C73.9627 132.986 73.7823 133.011 73.6062 133.034C73.4329 133.054 73.2923 133.071 73.1843 133.085C72.9229 133.119 72.6786 133.175 72.4513 133.251C72.2269 133.325 72.0451 133.437 71.9059 133.588C71.7695 133.736 71.7013 133.937 71.7013 134.193C71.7013 134.543 71.8306 134.807 72.0891 134.986C72.3505 135.162 72.6815 135.25 73.082 135.25ZM77.7642 136V129.455H78.7358V130.443H78.804C78.9233 130.119 79.1392 129.857 79.4517 129.655C79.7642 129.453 80.1165 129.352 80.5085 129.352C80.5824 129.352 80.6747 129.354 80.7855 129.357C80.8963 129.359 80.9801 129.364 81.0369 129.369V130.392C81.0028 130.384 80.9247 130.371 80.8026 130.354C80.6832 130.334 80.5568 130.324 80.4233 130.324C80.1051 130.324 79.821 130.391 79.571 130.524C79.3239 130.655 79.1278 130.837 78.983 131.07C78.8409 131.3 78.7699 131.562 78.7699 131.858V136H77.7642ZM85.4858 129.455V130.307H82.0938V129.455H85.4858ZM83.0824 127.886H84.0881V134.125C84.0881 134.409 84.1293 134.622 84.2116 134.764C84.2969 134.903 84.4048 134.997 84.5355 135.045C84.669 135.091 84.8097 135.114 84.9574 135.114C85.0682 135.114 85.1591 135.108 85.2301 135.097C85.3011 135.082 85.358 135.071 85.4006 135.062L85.6051 135.966C85.5369 135.991 85.4418 136.017 85.3196 136.043C85.1974 136.071 85.0426 136.085 84.8551 136.085C84.571 136.085 84.2926 136.024 84.0199 135.902C83.75 135.78 83.5256 135.594 83.3466 135.344C83.1705 135.094 83.0824 134.778 83.0824 134.398V127.886Z" fill="#776FD1"/>
<path d="M59.0568 143V134.273H60.1136V142.062H64.1705V143H59.0568ZM68.4148 143.136C67.7841 143.136 67.2401 142.997 66.7827 142.719C66.3281 142.438 65.9773 142.045 65.7301 141.543C65.4858 141.037 65.3636 140.449 65.3636 139.778C65.3636 139.108 65.4858 138.517 65.7301 138.006C65.9773 137.491 66.321 137.091 66.7614 136.804C67.2045 136.514 67.7216 136.369 68.3125 136.369C68.6534 136.369 68.9901 136.426 69.3224 136.54C69.6548 136.653 69.9574 136.838 70.2301 137.094C70.5028 137.347 70.7202 137.682 70.8821 138.099C71.044 138.517 71.125 139.031 71.125 139.642V140.068H66.0795V139.199H70.1023C70.1023 138.83 70.0284 138.5 69.8807 138.21C69.7358 137.92 69.5284 137.692 69.2585 137.524C68.9915 137.357 68.6761 137.273 68.3125 137.273C67.9119 137.273 67.5653 137.372 67.2727 137.571C66.983 137.767 66.7599 138.023 66.6037 138.338C66.4474 138.653 66.3693 138.991 66.3693 139.352V139.932C66.3693 140.426 66.4545 140.845 66.625 141.189C66.7983 141.53 67.0384 141.79 67.3452 141.969C67.652 142.145 68.0085 142.233 68.4148 142.233C68.679 142.233 68.9176 142.196 69.1307 142.122C69.3466 142.045 69.5327 141.932 69.6889 141.781C69.8452 141.628 69.9659 141.437 70.0511 141.21L71.0227 141.483C70.9205 141.812 70.7486 142.102 70.5071 142.352C70.2656 142.599 69.9673 142.793 69.6122 142.932C69.2571 143.068 68.858 143.136 68.4148 143.136ZM74.581 143.153C74.1662 143.153 73.7898 143.075 73.4517 142.919C73.1136 142.76 72.8452 142.531 72.6463 142.233C72.4474 141.932 72.348 141.568 72.348 141.142C72.348 140.767 72.4219 140.463 72.5696 140.23C72.7173 139.994 72.9148 139.81 73.1619 139.676C73.4091 139.543 73.6818 139.443 73.9801 139.378C74.2813 139.31 74.5838 139.256 74.8878 139.216C75.2855 139.165 75.608 139.126 75.8551 139.101C76.1051 139.072 76.2869 139.026 76.4006 138.96C76.517 138.895 76.5753 138.781 76.5753 138.619V138.585C76.5753 138.165 76.4602 137.838 76.2301 137.605C76.0028 137.372 75.6577 137.256 75.1946 137.256C74.7145 137.256 74.3381 137.361 74.0653 137.571C73.7926 137.781 73.6009 138.006 73.4901 138.244L72.5355 137.903C72.706 137.506 72.9332 137.196 73.2173 136.974C73.5043 136.75 73.8168 136.594 74.1548 136.506C74.4957 136.415 74.831 136.369 75.1605 136.369C75.3707 136.369 75.6122 136.395 75.8849 136.446C76.1605 136.494 76.4261 136.595 76.6818 136.749C76.9403 136.902 77.1548 137.134 77.3253 137.443C77.4957 137.753 77.581 138.168 77.581 138.688V143H76.5753V142.114H76.5241C76.456 142.256 76.3423 142.408 76.1832 142.57C76.0241 142.732 75.8125 142.869 75.5483 142.983C75.2841 143.097 74.9616 143.153 74.581 143.153ZM74.7344 142.25C75.1321 142.25 75.4673 142.172 75.7401 142.016C76.0156 141.859 76.223 141.658 76.3622 141.411C76.5043 141.163 76.5753 140.903 76.5753 140.631V139.71C76.5327 139.761 76.4389 139.808 76.294 139.851C76.152 139.891 75.9872 139.926 75.7997 139.957C75.6151 139.986 75.4347 140.011 75.2585 140.034C75.0852 140.054 74.9446 140.071 74.8366 140.085C74.5753 140.119 74.331 140.175 74.1037 140.251C73.8793 140.325 73.6974 140.437 73.5582 140.588C73.4219 140.736 73.3537 140.937 73.3537 141.193C73.3537 141.543 73.483 141.807 73.7415 141.986C74.0028 142.162 74.3338 142.25 74.7344 142.25ZM79.4165 143V136.455H80.3881V137.443H80.4563C80.5756 137.119 80.7915 136.857 81.104 136.655C81.4165 136.453 81.7688 136.352 82.1609 136.352C82.2347 136.352 82.3271 136.354 82.4379 136.357C82.5487 136.359 82.6325 136.364 82.6893 136.369V137.392C82.6552 137.384 82.5771 137.371 82.4549 137.354C82.3356 137.334 82.2092 137.324 82.0756 137.324C81.7575 137.324 81.4734 137.391 81.2234 137.524C80.9762 137.655 80.7802 137.837 80.6353 138.07C80.4933 138.3 80.4222 138.562 80.4222 138.858V143H79.4165ZM84.8871 139.062V143H83.8814V136.455H84.853V137.477H84.9382C85.0916 137.145 85.3246 136.878 85.6371 136.676C85.9496 136.472 86.353 136.369 86.8473 136.369C87.2905 136.369 87.6783 136.46 88.0107 136.642C88.343 136.821 88.6016 137.094 88.7862 137.46C88.9709 137.824 89.0632 138.284 89.0632 138.841V143H88.0575V138.909C88.0575 138.395 87.924 137.994 87.657 137.707C87.3899 137.418 87.0234 137.273 86.5575 137.273C86.2365 137.273 85.9496 137.342 85.6967 137.482C85.4467 137.621 85.2493 137.824 85.1044 138.091C84.9595 138.358 84.8871 138.682 84.8871 139.062Z" fill="#776FD1"/>
</g>
<defs>
<clipPath id="clip0_1_5">
<rect width="152" height="201" fill="white"/>
</clipPath>
<clipPath id="clip1_1_5">
<rect width="41" height="33" fill="white" transform="translate(91.3883 90.4398) rotate(27.5572)"/>
</clipPath>
</defs>
</svg>
